<svg xmlns="http://www.w3.org/2000/svg" version="1.1" xmlns:xlink="http://www.w3.org/1999/xlink" xmlns:svgjs="http://svgjs.dev/svgjs" width="1440" height="560" preserveAspectRatio="none" viewBox="0 0 1440 560"><g mask="url(&quot;#SvgjsMask1020&quot;)" fill="none"><rect width="1440" height="560" x="0" y="0" fill="rgba(215, 240, 255, 1)"></rect><path d="M0,534.338C98.531,532.626,150.29,416.059,231.653,360.459C309.917,306.977,419.773,295.238,468.699,214.048C518.853,130.819,518.698,22.615,491.447,-70.659C465.814,-158.396,383.724,-211.553,324.111,-280.843C264.243,-350.429,225.454,-443.743,140.516,-478.555C52.771,-514.518,-52.091,-510.244,-138.086,-470.276C-219.843,-432.277,-260.452,-344.021,-310.412,-268.974C-354.335,-202.996,-396.366,-136.955,-411.745,-59.2C-427.723,21.584,-430.872,106.317,-399.715,182.544C-367.888,260.41,-300.031,313.025,-236.885,368.6C-163.047,433.585,-98.347,536.047,0,534.338" fill="#c0e7ff"></path><path d="M1440 1166.275C1553.593 1159.095 1648.939 1093.8229999999999 1751.938 1045.385 1871.929 988.957 2045.8780000000002 982.232 2094.049 858.694 2142.8360000000002 733.577 1999.009 614.991 1970.972 483.658 1945.628 364.937 2003.3139999999999 230.777 1938.1390000000001 128.36 1870.775 22.503000000000043 1746.538-41.32299999999998 1622.982-63.17999999999995 1505.044-84.043 1389.422-34.678 1279.024 11.764999999999986 1178.8890000000001 53.89100000000002 1098.283 121.77199999999999 1015.665 192.312 918.351 275.4 757.461 333.307 752.668 461.177 747.735 592.766 930.079 648.581 994.251 763.567 1050.675 864.671 1015.731 1008.873 1101.645 1086.491 1189.407 1165.779 1321.962 1173.7359999999999 1440 1166.275" fill="#eff9ff"></path></g><defs><mask id="SvgjsMask1020"><rect width="1440" height="560" fill="#ffffff"></rect></mask></defs></svg>
